<?xml version="1.0" encoding="UTF-8"?>
<svg id="Layer_1" xmlns="http://www.w3.org/2000/svg" version="1.1" viewBox="0 0 3728.4 2657.1">
  <!-- Generator: Adobe Illustrator 29.1.0, SVG Export Plug-In . SVG Version: 2.1.0 Build 142)  -->
  <defs>
    <style>
      .st0 {
        fill: #fff;
      }
    </style>
  </defs>
  <g>
    <path d="M905.3,1328.8c108.6-9.6,184.7,101.8,129.7,197.3-54,93.8-194.4,84.4-235.9-15.4-32.8-79,20-174.2,106.2-181.9ZM909.2,1333.6c-94.9,7.8-146.7,117.9-93.3,197,57.6,85.2,188.3,69.6,223.8-26.8,32.4-88-37.8-177.7-130.5-170.1Z"/>
    <path class="st0" d="M909.2,1333.6c92.8-7.6,162.9,82.1,130.5,170.1-35.5,96.4-166.2,112.1-223.8,26.8-53.4-79-1.7-189.2,93.3-197ZM925.8,1345.9c-3.1-1.3-.7-6.8-5.8-5.8,2,4,4.7,7.7,3.9,12.5,3,.5,1.5-.9,1.9-2.4,1.1-3.7,2.4-5.8,3.9-9.2-2.7-.3-3.6,2.8-3.9,4.8ZM919,1352.6c-2.1-4.1-1.3-6.3-1.4-10.7l-8.3-.9,1,12.6,1.9-5.8h2.8c0,0,1,4.2,1,4.2l2.9.6ZM899.5,1342.2c-4.9,1.4-5,10.7,0,12.2,10.7,3.2,10.1-15.1,0-12.2ZM944.1,1344.9c-.1-5.3-8.7-3-7.6,1.3.6,2.2,5.1,2.8,4.7,5-.7,3.4-6.9-1.7-5.8,2.4,4.8,2,11.4,0,6.8-5.3s-3.8-.8-2.9-4.3l4.8,1ZM893,1343.9l-8.7,1.9c-.9,3.4,2.7,1.1,3.8,2l2,9.6,2.9-1-2.8-9.1,2.8-3.4ZM956.7,1347.8c.3-1.9-.8-2.6-2.4-2.9-10.8-2-11.3,13-.5,12.5.6-2.9-2.1-1.6-3.9-3.3s-1.2-5.1.7-7.4l6.1,1ZM960.6,1352.6c-1-1.3,4.6-5.7-1-5.8l-3.9,11.6c4.9,1.1,1.2-4,6-3.7s1.7.9,2.7.8l-1.9,5.8h2.8c0-.1,4-11.6,4-11.6l-2.9.7-1.5,3.1-4.2-.9ZM887.2,1358.4c1-.8-6.2-8.7-6.8-10.2l-3.7.7.8,12.4c4.2,0-.7-3.5,4.6-4.6s3.1,3.4,5.1,1.7ZM872,1359.2c-.8-1.5.5-5.7-2.8-6.4s-4.9,2.5-7.1,2.7c-.7,1,11.5,19.9,5.8,4.8l7.7,2.9c.7-2.7-3.2-3.2-3.6-4.1ZM973.8,1353.8c-6.6,1.2-6.4,13.1,1.6,12.4,7.9-.7,7.2-14-1.6-12.4ZM909.2,1358.7c-71.7,6.9-111.8,88.9-76.6,151.3,38.6,68.5,139,68.5,177.3-.3,40.9-73.4-17.6-159-100.8-151ZM858.2,1368.1c3.4-2.4,5.3,2.7,7.7-.5l-10-8.2c-4.1.5.3,12,1.3,13s1.7,1,2,0l-1-4.3ZM982.1,1371.7c6,6.3,14.8-5,9-9.5-5.8-4.5-13.8,4.4-9,9.5ZM849.1,1365.5c-1.2,0-6,2.8-6.1,4,1.1,1.8,6.2,9.5,8,9.2,3.4-.6-1.4-4.1-1.4-4.3,3.8-2,4.2-8.8-.5-8.8ZM999.2,1368.1c-1.5-1.5-8.7,7.9-9.6,9.2,4.4,3.1,10.1,8.2,3.9-.8l5.7-8.3ZM840.8,1371.9c-.9-.9-6,3.7-5.7,5.2l9,8.3c.4-.8,5.5-4.9,4.4-5.8s-3.5,3.3-5.3,2.9c-4.3-.9,2.7-5.2.5-6.3s-3.5,4.5-5.3,1.5,3.1-3.3,2.4-5.8ZM1006.9,1393.2l5.7-10.3-2.3-2.9-11.1,4.5c-.6,4.3,4.4-1.1,6.3,2.9s-3.5,5.9,1.4,5.8ZM836.2,1385.2c-.7-.6-.4-4.7-3.6-4.6s-5.7,4.1-5.4,6.2l9.7,6.3-2.9-4.3c3-4.2,7.2,3.6,7.7-2.4-1.3-.6-4.9-.6-5.6-1.2ZM1014.6,1399c1.2-4.3,5.4-6.6,2.9-11.6l-10.6,6.8,2.2,1.8,6.4-4.7c1.3,1.5-6.7,9.3-2.4,11.6,1.3-1.6,11.4-6.2,9.2-8.7-.9-1.1-7.2,5.4-7.7,4.8ZM831.2,1400c-.1-.2-2.4-.2-2.8-1.6-.6-2.1,3.8-8.3-2.5-8.2s-5,2.3-5.2,4.6,7.3,5.8,9,8c.8-.6,2.1-2,1.4-2.8ZM1024,1400.1l-9.3,5.3c1.5,4.6,5.1,8.9,10.3,6.4,5.5-2.6,2.3-12-1-11.7ZM823.4,1410.5c-1.8,1.2-8.2-6.1-10.5-2.3l11,5.4,2.5-6.8-3,3.8ZM822.5,1415.4l-12.5-1c-3.8,2.6,7.4,11.5,8.2,11.6s2.1-1.6,1-2.9-4.3-.7-1.5-4.2,5.5.1,4.9-3.5ZM1034.9,1423.1c1.3-3.7-3.6-9.7-6.3-5.8s-1.7,12.1-4.1,5.1.9-3.8-2.1-3.1c-.5,4.6,2.3,9.3,6.8,5.4l2.3-6.3,3.4,4.8ZM812,1427.8l-1.7-2.7c-4.2-1.5-6.3,4.3-6.2,7.6l11.1,2.9,1-1.9-4.4-1v-2.9s5.8,0,5.8,0v-2.9s-5.7.8-5.7.8ZM1036.8,1426l-11.6,2.9,2.4,7.7-.5-5.8,3.9-1c.5.5-.3,5.9,2.9,4.8l-1-5.8h2.8c1.8,9.8,3.4,2.1,1-2.9ZM812.6,1437.8c-1.4-1.4-5.7-1.6-7.5-.7-3.1,2.1-2.5,6.1-3.9,9.2l12.5,1.9c.5-2.9,1-8.1-1.2-10.4ZM1039.7,1437.6l-12.6,1c1.8,4,6.4.2,9.7,1l-8.7,5.3c1.9,3.6,10-1,9.6,3.4-2.2-.1-4.4.3-6.5.8s-2.7-.7-2.2,2.1l12.5-1.9-1.1-3.7h-7.6c-2.5-2.2,6.3-3.6,6.6-4.1v-3.7ZM803.2,1450.1c-3.6-.8-1,4.8-2.9,6.7l12.6,1-.5-7.7-1.6,5.7h-2.8c0,.1,0-5.7,0-5.7-3.6-1.1-1.2,4.1-1.9,4.8h-2.9s0-4.8,0-4.8ZM1041.7,1455.9v-2.9c-3.9,1.8-8.4.7-12.6,1l1.4,2.6,11.1-.7ZM1041.7,1459.8l-11.6-1v2.9c1.2,1.2,7.9-2.3,8.7,1-4.1,1.3-9.1,2-9.7,6.8h12.5c.8-3.7-5.6-1.3-7.7-1.9,1.8-3.6,8.6-2.6,7.7-7.7ZM812.9,1460.8c-3.8.7-12.2-2.2-12.5,2.9l5.8.6v4.3s-4.8,0-4.8,0v2.9s11.6-1,11.6-1c1.1-3.6-4.1-1.2-4.8-1.9,0-.8,0-1.6,0-2.4.4-5.8,4.8-1,4.9-5.3ZM1040.5,1476.4c-.3-.5-9.7-4.5-11.4-5-.4,3.2,3.6,1.7,2.9,5.3s-1.3,2.3-3.2,2.4l-.7,2.9,12.5-1.9c-.1-1.1.4-2.8-.2-3.7ZM803.2,1474.3c-3.9-.8.4,6.4-1,8.7h2.9s-1-3.9-1-3.9l9.7-1c.3-4.5-7.7-.2-10.1-.9l-.5-2.9ZM816.7,1488.8l-3.8-.5,1.4-7.2c-3.3,3.5-11.5,4-10.2,9.6l12.6,1v-2.9ZM1031.9,1491.8c1.9,7.3,9-1.6,6.5-5l-11.2-2.8c-.4,2.6,2,2.8,3.8,3v2.8c-.4.4-6.4-1.2-5.7,2.9l6.6-.9ZM808,1496.5l-1.6,2c1.6,9.2,15.4,6.6,12.8-2s-2.2-4.1-3.5-2.4c3,3,1.7,6.2-1.9,7.8-3.2.9-5.7-2.6-5.8-5.4ZM1036.8,1497.5c-5.1.2-8.3,2-13-1-2.3,4.1,2.1,2.8,4,4.2s3.4,5.4,4.6,5.5c4.2.3-3.5-5.5-2.4-6.7,2.3.6,5.6.8,6.8-1.9ZM824.9,1519.1c-5.2.2-4.3,8.8.9,8.3,4.6-.4,5.2-8.6-.9-8.3ZM1015.3,1519.8c-4,1.4-2.2,10.3,4.2,7.1,4.2-2.1,1.3-9-4.2-7.1ZM854.4,1546.7c1.1-1-4.3-6.6-6.2-5.9l-7.3,9.7,6.8,3.9c.6-2.4-3.3-3.4-2.9-5.3.9-4.5,5.3,3.3,6.7,0-.5-1.7-4.5-2-3.8-3.8,1.6-4.2,5.4,2.7,6.7,1.4ZM1000.1,1546.7c-3.4,1.2-6.1-5.9-7.2-5.8-3.3,0-1.3,9.3-1,11.6,1.3,2.4,3.6-2.7,4.8-2.7s1.7,2.3,3.4,1.7v-4.8ZM861.9,1549.7c-.6-.9-6.1-2.6-7.5-1-1.5,2.4,4.5,10.9-.8,8.7-.3-.1-5.6-4.1-4.2-.7s5.7,4.4,8,2.5c3.9-3-1.6-6.6-1.3-8.3.3-1.6,1.5-1.1,2.6-.7s1.9,3.8,3.2,2.2.1-2.3-.1-2.8ZM990.5,1559.2l-7.2-10.6-3.4,4.8c6.4-3.3,4.7,6.4,10.6,5.8ZM868,1557.4l4.7-.6-8.7-4.3,2,3.3-4.9,9.2,2.9,1,4-8.6ZM975,1566.9c2.6,2,9.4-5.9,3-11.2-7.2-5.8-9.2,7.7-3.6,7.2l4.5-2.3-3.9,6.3ZM877.5,1571.8l.5-12.6-2.9-1-7.2,9.2c2,3.2,2.7-1.5,4.8-1.1,4.5,1,1.1,5.9,4.8,5.4ZM967.3,1570.8l2.9-1.4c-2.7-4.1-5.6-17-8.7-5.3l2.9-1.9,2.9,8.7ZM889.1,1568.9c7.7-1.5-1.8-8.7-4.7-6.7l-2.9,11.4c5.1,2.6,12.6,1.9,7.7-4.7ZM944.2,1565.1l2.8,12.1c13.9,0,10.9-17.3-2.8-12.1ZM897.8,1565h-2.9s-1.9,12.5-1.9,12.5l7.7,1c1-3.2-4.1-2-4.8-2.9l1.9-10.6ZM941.3,1566l-7.7,1,1.9,12.5,7.7-1c.8-4.4-4.6.5-5.8-2.4s3.3-2.8,4.8-3.4c-.8-2.9-3.6-.6-5.8-1l.6-2.9c1.3-.8,5,.2,4.2-2.9ZM907.5,1567h-2.9s-1,12.5-1,12.5c2.1.4,1.9-.2,2.4-1.9.9-3.2.9-7.3,1.4-10.7ZM917.1,1567.9l-6.3,1-1,2.4c-.2,3.5,6,3,5.4,5.8s-8.8-.8-5.8,2.4,11.3.1,7.8-5.1c-1-1.6-4.9-1.2-4.9-4,0-2.1,5.9,1.1,4.8-2.4ZM922.9,1567.9c-2.3-.1-1.7-.3-1.9,1.4-.4,3.4.3,7.6,0,11.1h2.9s-.5-4.9-.5-4.9l5.4-.9,1.4,5.8c2.4-3.1-.6-8.7.5-12.5-3.6-1.1-1.2,4.1-1.9,4.8h-5.2s-.6-4.8-.6-4.8Z"/>
    <path d="M909.2,1358.7c83.2-8,141.7,77.6,100.8,151-38.4,68.9-138.7,68.8-177.3.3-35.2-62.4,4.9-144.4,76.6-151.3ZM913.1,1362.6c-74.1,6.2-114.4,90.7-72,152.5,40.7,59.3,130.7,54.9,165.4-8,37.6-68.2-16.3-150.9-93.4-144.5Z"/>
    <path d="M889.1,1568.9c4.9,6.6-2.6,7.3-7.7,4.7l2.9-11.4c2.9-2,12.5,5.2,4.7,6.7Z"/>
    <path d="M1039.7,1437.6v3.7c-.5.6-9.3,2-6.8,4h7.6c0,.1,1.1,3.9,1.1,3.9l-12.5,1.9c-.5-2.8.6-1.6,2.2-2.1s4.3-1,6.5-.8c.4-4.4-7.7.2-9.6-3.4l8.7-5.3c-3.2-.8-7.8,3-9.7-1l12.6-1Z"/>
    <path d="M1031.9,1491.8l-6.6.9c-.7-4.1,5.4-2.5,5.8-2.9v-2.8c-1.8-.2-4.2-.4-3.9-3l11.2,2.8c2.5,3.4-4.6,12.3-6.5,5Z"/>
    <path d="M872,1359.2c.5.8,4.4,1.4,3.6,4.1l-7.7-2.9c5.7,15.1-6.5-3.8-5.8-4.8,2.2-.2,5-3.1,7.1-2.7,3.2.6,2,4.9,2.8,6.4Z"/>
    <path d="M836.2,1385.2c.7.6,4.3.6,5.6,1.2-.5,6-4.7-1.8-7.7,2.4l2.9,4.3-9.7-6.3c-.3-2.1,3.6-6.2,5.4-6.2,3.2,0,2.9,4,3.6,4.6Z"/>
    <path d="M812,1427.8l5.7-.8v2.9s-5.8,0-5.8,0v2.9s4.4,1,4.4,1l-1,1.9-11.1-2.9c-.1-3.3,2-9.1,6.2-7.6l1.7,2.7Z"/>
    <path d="M919,1352.6l-2.9-.6-1-4.1h-2.8c0,0-1.9,5.7-1.9,5.7l-1-12.6,8.3.9c0,4.3-.7,6.5,1.4,10.7Z"/>
    <path d="M1014.6,1399c.5.6,6.8-5.9,7.7-4.8,2.2,2.5-7.9,7.1-9.2,8.7-4.3-2.3,3.7-10,2.4-11.6l-6.4,4.7-2.2-1.8,10.6-6.8c2.5,5-1.7,7.2-2.9,11.6Z"/>
    <path d="M944.2,1565.1c13.7-5.2,16.6,12,2.8,12.1l-2.8-12.1ZM947.1,1566l2.4,9.6c7.1-2.7,4.4-10.1-2.4-9.6Z"/>
    <path d="M822.5,1415.4c.6,3.6-3.8,2.2-4.9,3.5-2.8,3.4.8,3.3,1.5,4.2,1.1,1.3-.6,2.9-1,2.9-.8,0-11.9-8.9-8.2-11.6l12.5,1Z"/>
    <path d="M849.1,1365.5c4.7,0,4.3,6.8.5,8.8,0,.3,4.8,3.7,1.4,4.3s-6.9-7.4-8-9.2c0-1.1,4.9-4,6.1-4Z"/>
    <path d="M1006.9,1393.2c-4.9.2-.6-4.2-1.4-5.8-1.9-3.9-6.9,1.4-6.3-2.9l11.1-4.5,2.3,2.9-5.7,10.3Z"/>
    <path d="M975,1566.9l3.9-6.3-4.5,2.3c-5.5.5-3.6-13,3.6-7.2,6.5,5.3-.4,13.2-3,11.2Z"/>
    <path d="M831.2,1400c.6.9-.6,2.3-1.4,2.8-1.7-2.2-9.3-5.2-9-8s2.8-4.6,5.2-4.6c6.3,0,1.9,6.1,2.5,8.2s2.7,1.4,2.8,1.6Z"/>
    <path d="M858.2,1368.1l1,4.3c-.2,1-1.3.6-2,0-1-1-5.4-12.4-1.3-13l10,8.2c-2.4,3.2-4.3-1.9-7.7.5Z"/>
    <path d="M899.5,1342.2c10.1-2.9,10.7,15.4,0,12.2-5-1.5-4.9-10.8,0-12.2ZM900.4,1344.1c-3.6,1.7-3.1,5.4-.7,8.1,4.8,2.9,6.6-4.3,3.5-7.4l-2.8-.8Z"/>
    <path d="M1024,1400.1c3.4-.3,6.5,9.1,1,11.7-5.2,2.5-8.9-1.8-10.3-6.4l9.3-5.3ZM1017.6,1405.8c0,9.4,14.1,1.6,6.3-3l-6.3,3Z"/>
    <path d="M887.2,1358.4c-1.9,1.7-2.5-2.3-5.1-1.7-5.2,1.1-.3,4.7-4.6,4.6l-.8-12.4,3.7-.7c.5,1.5,7.7,9.3,6.8,10.2Z"/>
    <path d="M877.5,1571.8c-3.7.5-.3-4.4-4.8-5.4s-2.8,4.3-4.8,1.1l7.2-9.2,2.9,1-.5,12.6Z"/>
    <path d="M816.7,1488.8v2.9s-12.6-1-12.6-1c-1.3-5.6,6.8-6.2,10.2-9.6l-1.4,7.2,3.8.5Z"/>
    <path d="M960.6,1352.6l4.2.9,1.5-3.1,2.9-.7-4,11.4h-2.8c0,.1,1.9-5.6,1.9-5.6-.9,0-1.9-.7-2.7-.8-4.8-.3-1.1,4.8-6,3.7l3.9-11.6c5.5,0,0,4.4,1,5.8Z"/>
    <path d="M812.6,1437.8c2.2,2.2,1.7,7.5,1.2,10.4l-12.5-1.9c1.4-3.1.8-7,3.9-9.2,1.8-.9,6.1-.7,7.5.7ZM812.9,1445.3c.6-7.3-8-8.9-9.6-1.4l9.6,1.4Z"/>
    <path d="M973.8,1353.8c8.8-1.6,9.5,11.7,1.6,12.4-8,.7-8.2-11.2-1.6-12.4ZM972.2,1364.1c3.3,2.3,9.7-5.6,4.7-8.2s-7.2,6.4-4.7,8.2Z"/>
    <path d="M1041.7,1459.8c.9,5.1-5.9,4.1-7.7,7.7,2.1.7,8.5-1.8,7.7,1.9h-12.5c.5-4.8,5.6-5.5,9.7-6.8-.8-3.2-7.5.3-8.7-1v-2.9s11.6,1,11.6,1Z"/>
    <path d="M1040.5,1476.4c.5.9,0,2.6.2,3.7l-12.5,1.9.7-2.9c2-.1,2.8-.3,3.2-2.4.7-3.6-3.3-2.1-2.9-5.3,1.7.5,11.1,4.4,11.4,5Z"/>
    <path d="M982.1,1371.7c-4.8-5.1,3.2-14,9-9.5,5.8,4.5-3,15.8-9,9.5ZM986.3,1363.4c-1.5.4-3.6,3.7-3.6,5.2l3.4,3c5.1-.9,6.4-10,.2-8.2Z"/>
    <path d="M812.9,1460.8c0,4.3-4.5-.5-4.9,5.3,0,.8,0,1.6,0,2.4.7.7,5.9-1.6,4.8,1.9l-11.6,1v-2.9s4.8,0,4.8,0v-4.3s-5.8-.6-5.8-.6c.4-5.1,8.7-2.2,12.5-2.9Z"/>
    <path d="M922.9,1567.9l.6,4.8h5.2c.7-.7-1.7-5.9,1.9-4.8-1.1,3.9,2,9.4-.5,12.5l-1.4-5.8-5.4.9.5,4.8h-2.9c.3-3.5-.4-7.7,0-11.1.2-1.7-.3-1.6,1.9-1.4Z"/>
    <path d="M1000.1,1546.7v4.8c-1.7.6-2.5-1.7-3.4-1.7-1.2,0-3.6,5.1-4.8,2.7-.3-2.3-2.3-11.5,1-11.6s3.8,7.1,7.2,5.8Z"/>
    <path d="M854.4,1546.7c-1.3,1.3-5.2-5.6-6.7-1.4s3.3,2.2,3.8,3.8c-1.5,3.3-5.8-4.5-6.7,0-.4,1.9,3.5,2.9,2.9,5.3l-6.8-3.9,7.3-9.7c1.9-.8,7.2,4.8,6.2,5.9Z"/>
    <path d="M941.3,1566c.8,3.1-2.9,2.1-4.2,2.9l-.6,2.9c2.2.4,5-1.9,5.8,1-1.5.6-6.1.1-4.8,3.4s6.6-2,5.8,2.4l-7.7,1-1.9-12.5,7.7-1Z"/>
    <path d="M840.8,1371.9c.7,2.5-3.9,3.3-2.4,5.8s3.7-2.2,5.3-1.5-4.7,5.4-.5,6.3,3.8-4.1,5.3-2.9-4.1,5-4.4,5.8l-9-8.3c-.3-1.5,4.8-6.1,5.7-5.2Z"/>
    <path d="M803.2,1450.1v4.8s2.9,0,2.9,0c.7-.7-1.6-5.9,1.9-4.8v5.8s2.8-.1,2.8-.1l1.6-5.7.5,7.7-12.6-1c1.9-2-.7-7.5,2.9-6.7Z"/>
    <path d="M861.9,1549.7c.3.4.3,2.6.1,2.8-1.2,1.6-2.2-1.8-3.2-2.2s-2.3-.8-2.6.7c-.3,1.6,5.2,5.3,1.3,8.3-2.3,1.9-7.1-.2-8-2.5-1.4-3.5,3.9.5,4.2.7,5.2,2.2-.8-6.3.8-8.7,1.4-1.6,6.9,0,7.5,1Z"/>
    <path d="M1036.8,1426c2.4,5,.8,12.7-1,2.9h-2.8s1,5.8,1,5.8c-3.2,1.1-2.4-4.3-2.9-4.8l-3.9,1,.5,5.8-2.4-7.7,11.6-2.9Z"/>
    <path d="M1015.3,1519.8c5.5-1.8,8.4,5,4.2,7.1-6.3,3.2-8.2-5.8-4.2-7.1Z"/>
    <path d="M824.9,1519.1c6.2-.3,5.5,7.9.9,8.3-5.3.5-6.1-8.1-.9-8.3Z"/>
    <path d="M917.1,1567.9c1.1,3.5-4.9.3-4.8,2.4,0,2.8,3.9,2.5,4.9,4,3.5,5.2-5.3,7.7-7.8,5.1s5.2.2,5.8-2.4-5.6-2.3-5.4-5.8l1-2.4,6.3-1Z"/>
    <path d="M956.7,1347.8l-6.1-1c-1.9,2.3-3.2,5-.7,7.4s4.5.5,3.9,3.3c-10.8.4-10.3-14.6.5-12.5s2.7,1,2.4,2.9Z"/>
    <path d="M944.1,1344.9l-4.8-1c-.9,3.5,1.5,2.7,2.9,4.3,4.6,5.3-2,7.3-6.8,5.3-1.1-4.1,5.1,1,5.8-2.4.4-2.2-4.2-2.8-4.7-5-1.1-4.2,7.5-6.5,7.6-1.3Z"/>
    <path d="M1034.9,1423.1l-3.4-4.8-2.3,6.3c-4.6,3.9-7.3-.8-6.8-5.4,3-.6,1.5,1.5,2.1,3.1,2.4,7,3.7-4.6,4.1-5.1,2.7-3.9,7.6,2.2,6.3,5.8Z"/>
    <path d="M808,1496.5c.1,2.8,2.7,6.3,5.8,5.4,3.6-1.6,4.9-4.9,1.9-7.8,1.2-1.7,3,1,3.5,2.4,2.7,8.6-11.1,11.2-12.8,2l1.6-2Z"/>
    <polygon points="868 1557.4 864 1566 861.1 1565 866 1555.8 864 1552.5 872.7 1556.8 868 1557.4"/>
    <path d="M1036.8,1497.5c-1.2,2.7-4.5,2.6-6.8,1.9-1.1,1.2,6.6,7,2.4,6.7s-3.8-4.9-4.6-5.5c-1.9-1.4-6.4-.1-4-4.2,4.7,3,8,1.2,13,1Z"/>
    <path d="M893,1343.9l-2.8,3.4,2.8,9.1-2.9,1-2-9.6c-1-.9-4.6,1.4-3.8-2l8.7-1.9Z"/>
    <path d="M897.8,1565l-1.9,10.6c.7,1,5.8-.2,4.8,2.9l-7.7-1,1.9-12.6h2.9Z"/>
    <path d="M925.8,1345.9c.3-2,1.2-5.1,3.9-4.8-1.5,3.4-2.7,5.5-3.9,9.2s1.1,2.9-1.9,2.4c.8-4.8-1.9-8.5-3.9-12.5,5.1-1,2.7,4.4,5.8,5.8Z"/>
    <path d="M823.4,1410.5l3-3.8-2.5,6.8-11-5.4c2.3-3.8,8.7,3.6,10.5,2.3Z"/>
    <path d="M999.2,1368.1l-5.7,8.3c6.1,9.1.4,4-3.9.8.9-1.3,8.1-10.7,9.6-9.2Z"/>
    <path d="M803.2,1474.3l.5,2.9c2.5.7,10.5-3.6,10.1.9l-9.7,1,1,3.8h-2.9c1.3-2.3-2.9-9.5,1-8.7Z"/>
    <path d="M967.3,1570.8l-2.9-8.7-2.9,1.9c3-11.6,5.9,1.2,8.7,5.3l-2.9,1.4Z"/>
    <path d="M990.5,1559.2c-5.9.6-4.2-9.1-10.6-5.8l3.4-4.8,7.2,10.6Z"/>
    <path d="M907.5,1567c-.6,3.3-.6,7.5-1.4,10.7s-.3,2.2-2.4,1.9l1-12.6h2.9Z"/>
    <path d="M1041.7,1455.9l-11.1.7-1.4-2.6c4.2-.3,8.6.9,12.5-1v2.9Z"/>
    <path class="st0" d="M913.1,1362.6c77.1-6.4,131,76.3,93.4,144.5-34.7,62.9-124.7,67.3-165.4,8-42.4-61.8-2.1-146.4,72-152.5ZM858.9,1395.3l-2.4,2.2c.5,2.8,4.8,4.9,5.4,7s1.1,8.1,1.2,10.4c2,29.9-2.7,63.2,0,92.7,2.9,32.9,38.1,23.3,56.5,41,8.7-10.8,22.2-9,34.2-14,5.7-2.4,18.1-8.9,20-14.7s1.8-13.3,2.2-18.1c1.2-16.5.5-33.7.9-50.2.2-7.5.5-43.1,2.5-46.7,1.8-3.1,8.3-5.8,1.4-9.3l-122-.2Z"/>
    <path class="st0" d="M947.1,1566c6.8-.5,9.5,7,2.4,9.6l-2.4-9.6Z"/>
    <path class="st0" d="M900.4,1344.1l2.8.8c3.1,3.1,1.3,10.3-3.5,7.4-2.4-2.7-2.9-6.4.7-8.1Z"/>
    <path class="st0" d="M1017.6,1405.8l6.3-3c7.8,4.6-6.2,12.4-6.3,3Z"/>
    <path class="st0" d="M812.9,1445.3l-9.6-1.4c1.7-7.5,10.2-5.8,9.6,1.4Z"/>
    <path class="st0" d="M972.2,1364.1c-2.5-1.7.3-10.5,4.7-8.2s-1.4,10.5-4.7,8.2Z"/>
    <path class="st0" d="M986.3,1363.4c6.2-1.8,4.9,7.3-.2,8.2l-3.4-3c0-1.6,2-4.8,3.6-5.2Z"/>
    <path d="M858.9,1395.3l122,.2c6.9,3.5.3,6.2-1.4,9.3-2.1,3.7-2.3,39.2-2.5,46.7-.5,16.5.3,33.7-.9,50.2-.3,4.7-.8,14-2.2,18.1-2,5.8-14.4,12.3-20,14.7-12.1,5-25.5,3.2-34.2,14-18.3-17.7-53.5-8.1-56.5-41-2.6-29.5,2-62.8,0-92.7-.2-2.3-.7-8.6-1.2-10.4s-4.9-4.2-5.4-7l2.4-2.2ZM896.8,1400.9h-31.4c-.2,0-.7-1-1.4-.5l-1,2.5h32.3c.2,0,1.5-1.3,1.4-1.9ZM977,1402.8v-2.9c-.3-.5-1.2,1-1.4,1h-31.4v1.9h32.8ZM918.1,1400.9h-19.3v34.8h42.5v-34.8h-19.3c.3,1.9,3.1,1.2,3.7,3.6,1.1,3.7-3.3,6.9-3.4,8.5s3.3,8.1,3.6,8.6c1.9,2.7,5.8,1.2,8.6,1.5,1.4,3.7-2.7,9.7-5.8,11.1s-21.9,1-24.6.5c-9.9-1.8,7.6-11.5,8.7-12.5,4.4-4.4,4.9-9,2.4-14.5,1.9.1.6,2.6,3.4,3s4.6-.7,5.3-2.5-1.4-1.2-2.3-1.3c-2.3-.1-5.2-.1-7.3.8v-4.7c.1,0,3.9-2.1,3.9-2.1ZM896.8,1405.7c0-.6-1.3-1.9-1.4-1.9h-30.4v1.9h31.9ZM976,1403.8h-31.9v1.9h31.9v-1.9ZM896.8,1409.6c0-.6-1.3-1.9-1.4-1.9h-28c-.2,0-1.5,1.3-1.4,1.9h30.9ZM974.1,1407.7h-29.9v1.9h29.9v-1.9ZM896.8,1411.5h-30.9v1.9h30.9v-1.9ZM974.1,1411.5h-29.9v1.9h29.9v-1.9ZM919.1,1414.4c.5,2.3-4.9,15.5,1.4,13.5s1.1-12.2-1.4-13.5ZM896.8,1415.4h-30.9v1.9h29.4c.2,0,1.5-1.3,1.4-1.9ZM974.1,1415.4h-29.9v1.9h29.9v-1.9ZM896.8,1419.2h-30.9v1h30.9v-1ZM974.1,1419.2h-29.9v1h27.5c.2,0,.8,1,1.4.5l1-1.5ZM896.8,1422.1h-30.9v1.9h30.9v-1.9ZM974.1,1422.1h-29.9v1.9h29.9v-1.9ZM932.6,1424.1c-6.1-1.4-5,1.2-7.2,2.9s-4,1.3-4.4,2.9c5.7,1,8.7-1.3,11.6-5.8ZM913.1,1425.2c-1.8-1-7.5,2.8-8.5,4.7h11.6s-3-4.7-3-4.7ZM896.8,1426h-30.9v1.9h30.9v-1.9ZM974.1,1426h-29.9v1.9h29.9v-1.9ZM896.8,1429.9h-30.9v1.9h30.9v-1.9ZM974.1,1429.9h-29.9v1.9h29.9v-1.9ZM927.7,1433.7v-1.4s-1.4-1.5-1.4-1.5h-22.7v2.9h24.1ZM896.8,1433.7h-30.9v1.9h30.9v-1.9ZM974.1,1433.7h-29.9v1.9h29.9v-1.9ZM942.2,1463.7c-3.1-2-5.3-5.3-9.2-6.7-.5-3.3,3.9-4.5,6.6-3.7s2.5,5.5,5.8,4.6l7.9-10.5c2.4,4,3.5,8.1,8.2,10.2,3.6,1,6.4-5.6,10.6-2.5v-13.5h-104.3c-1.4,7.4-1.2,15.2-1,22.7,0,2.3,1,4.4,1,6.7.2,11.5-.7,22.9.9,34.3l22.2-24.6c-3.3-1.4-7.6.3-10.9-.5s-.3-1.9-2.1-2-4.2.6-6.3,1.1c.3,3.1,3.5,3.9,3.9,7.3s-.1,5.6-2.4,5.2c-1.6-1.4,1.4-2.6,1.3-4.2s-3.8-4.4-4.5-7.1c-2-8.6,4.7-12.3,8.7-18.9s5.3-10.2,5.7-16h3.6c.6,8,4.9,15.4,9.6,21.8v2.1s-7.6,6.4-7.6,6.4l2.4,2.4,26.6-31.8,26.1,30.9c1.2.8,6-3.9,5.7-5.2-4.4-3.5-5.8-3.1-8.7-8.3,13,8.4,17.9,4.1,27-6.7-8.9,2.4-13.7,9.5-23.8,4s-4.8-6.3-9-6c0,2.9,3,2.7,4.7,5.5s.7,2.5,1.1,3.2ZM970.2,1512.9l-49.7-61.8-51.6,60.3,51.6-57.4,49.7,58.9ZM921,1457.9l-51,58.4c10.8,17,34.5,13.1,49.5,24.4,14.3-11.7,38.7-6.5,49.7-23.4l-48.3-59.4ZM964.4,1480.1h-15.4c-.4,1.7.7,1.9,1.4,2.9,4.4,5.7,11.5,14.2,16.4,19.3,1,1.1,2.3,2.9,3.9,2.9l1.4-46.3-15.4,12.1,7.7,9.2ZM958.6,1477.2c.2-4.1-6.6-3.8-8.7-1.4.2,3.1,6.8.7,8.7,1.4Z"/>
    <path class="st0" d="M921,1457.9l48.3,59.4c-11,16.9-35.4,11.8-49.7,23.4-15.1-11.3-38.7-7.4-49.5-24.4l51-58.4ZM907.5,1481l-2.3-1.8c-25.3,15.8-14.3,56.5,17.2,52.9s29.5-32,16.1-47.4c-5.2-5.9-9.5-5.7-2.9,2.2l-3.5.9c.7,4.2-1.3,5.6-3.8,8.7-2.1,1.1-1.7-4.4-1.5-5.4.4-2.5,2.2-4,2-6.6-6.1-3.7-3.7,2.8-4.3,6.1s-2,5.5-3.4,3.9c.4-2.4-1-4.5-1.4-6.6s2.1-5.7-1.5-5c-1.8,1.7.3,10.2-2.9,11.6-3.1-3.9,1.3-11.9-4.3-11.6-3.3.9,2.9,10.4,0,13.5-2.8-2.9-4.8-5.2-5.3-9.2l-3.9.5c-.7-.8,3.9-7.1,5.8-6.8Z"/>
    <path class="st0" d="M942.2,1463.7c2.8,5.2,4.2,4.8,8.7,8.3.3,1.3-4.5,6-5.7,5.2l-26.1-30.9-26.6,31.8-2.4-2.4,7.6-6.4v-2.1c-4.7-6.4-9-13.8-9.6-21.8h-3.6c-.4,5.8-2.7,11-5.7,16s-10.7,10.3-8.7,18.9c.6,2.8,4.3,5,4.5,7.1s-2.9,2.8-1.3,4.2c2.3.4,2.5-4,2.4-5.2-.3-3.4-3.6-4.3-3.9-7.3,2.1-.4,4.1-1.3,6.3-1.1s1.3,1.8,2.1,2c3.3.8,7.6-.9,10.9.5l-22.2,24.6c-1.6-11.4-.7-22.8-.9-34.3s-1-4.4-1-6.7c-.1-7.6-.4-15.3,1-22.7h104.3v13.5c-4.2-3-7,3.5-10.6,2.5-4.7-2.1-5.8-6.2-8.2-10.2l-7.9,10.5c-3.3.9-3.2-3.8-5.8-4.6s-7.1.4-6.6,3.7c3.9,1.4,6.1,4.7,9.2,6.7-.4-.7-.4-2-1.1-3.2-1.7-2.8-4.7-2.6-4.7-5.5,4.1-.3,5.6,4.1,9,6,10.1,5.5,15-1.6,23.8-4-9.1,10.9-14,15.1-27,6.7Z"/>
    <path class="st0" d="M918.1,1400.9l-3.7,2.1v4.7c2-.9,4.9-.9,7.2-.8s3.1-.9,2.3,1.3-3.5,2.8-5.3,2.5c-2.7-.4-1.5-2.8-3.4-3,2.5,5.5,1.9,10.1-2.4,14.5s-18.6,10.7-8.7,12.5,22.8.3,24.6-.5c3.1-1.4,7.2-7.4,5.8-11.1-2.8-.3-6.7,1.2-8.6-1.5s-3.6-8.1-3.6-8.6c.1-1.6,4.5-4.8,3.4-8.5s-3.5-1.7-3.7-3.6h19.3v34.8h-42.5v-34.8h19.3Z"/>
    <path class="st0" d="M964.4,1480.1l-7.7-9.2,15.4-12.1-1.4,46.3c-1.6,0-2.8-1.8-3.9-2.9-4.9-5.1-12-13.6-16.4-19.3-.8-1-1.9-1.2-1.4-2.9h15.4Z"/>
    <polygon class="st0" points="970.2 1512.9 920.5 1454 868.8 1511.4 920.5 1451.1 970.2 1512.9"/>
    <path class="st0" d="M896.8,1400.9c0,.6-1.3,1.9-1.4,1.9h-32.3l1-2.5c.8-.4,1.2.5,1.4.5h31.4Z"/>
    <path class="st0" d="M977,1402.8h-32.8v-1.9h31.4c.2,0,1.1-1.4,1.4-1v2.9Z"/>
    <rect class="st0" x="944.2" y="1403.8" width="31.9" height="1.9"/>
    <path class="st0" d="M896.8,1405.7h-31.9v-1.9h30.4c.2,0,1.5,1.3,1.4,1.9Z"/>
    <rect class="st0" x="866" y="1422.1" width="30.9" height="1.9"/>
    <rect class="st0" x="866" y="1426" width="30.9" height="1.9"/>
    <rect class="st0" x="866" y="1411.5" width="30.9" height="1.9"/>
    <rect class="st0" x="866" y="1429.9" width="30.9" height="1.9"/>
    <rect class="st0" x="866" y="1433.7" width="30.9" height="1.9"/>
    <path class="st0" d="M896.8,1415.4c0,.6-1.3,1.9-1.4,1.9h-29.4v-1.9h30.9Z"/>
    <rect class="st0" x="944.2" y="1415.4" width="29.9" height="1.9"/>
    <rect class="st0" x="944.2" y="1422.1" width="29.9" height="1.9"/>
    <rect class="st0" x="944.2" y="1426" width="29.9" height="1.9"/>
    <rect class="st0" x="944.2" y="1429.9" width="29.9" height="1.9"/>
    <rect class="st0" x="944.2" y="1433.7" width="29.9" height="1.9"/>
    <path class="st0" d="M896.8,1409.6h-30.9c0-.6,1.3-1.9,1.4-1.9h28c.2,0,1.5,1.3,1.4,1.9Z"/>
    <rect class="st0" x="944.2" y="1407.7" width="29.9" height="1.9"/>
    <rect class="st0" x="944.2" y="1411.5" width="29.9" height="1.9"/>
    <path class="st0" d="M974.1,1419.2l-1,1.5c-.7.4-1.2-.5-1.4-.5h-27.5v-1h29.9Z"/>
    <rect class="st0" x="866" y="1419.2" width="30.9" height="1"/>
    <path class="st0" d="M958.6,1477.2c-1.9-.7-8.5,1.7-8.7-1.4,2-2.4,8.8-2.6,8.7,1.4Z"/>
    <path d="M906.5,1504.2c.2.9,1.8,2,2.9,1.9l-1.9,2.9c4-2.1,9.5-2.5,14-2,2.1.3,7.7,3.4,8.2,2.9-1.4,2.4,0,2.3-3.8,3.4-7,2.1-13.9.7-20.2-2.6-.9-1.3,1.3-5.3.9-6.6Z"/>
    <path d="M907.5,1481c-1.9-.4-6.5,6-5.8,6.8l3.9-.5c.5,3.9,2.5,6.3,5.3,9.2,2.9-3.1-3.3-12.6,0-13.5,5.6-.3,1.2,7.7,4.3,11.6,3.2-1.4,1.1-9.9,2.9-11.6,3.6-.7,1.1,3,1.5,5s1.8,4.2,1.4,6.6c1.4,1.7,3.4-3.4,3.4-3.9.6-3.4-1.8-9.9,4.3-6.1.2,2.6-1.6,4-2,6.6s-.6,6.4,1.5,5.4c2.5-3.1,4.4-4.6,3.8-8.7l3.5-.9c-6.6-7.8-2.3-8.1,2.9-2.2,13.4,15.4,5.5,45-16.1,47.4-31.5,3.6-42.5-37.1-17.2-52.9l2.3,1.8ZM898.8,1488.8c-2.5-.5-1.7.5-2.4,1.9-5.9,12.7-4.6,24.9,6.7,33.8,22.3,17.4,46.7-8.4,38.1-31.8-3.7-.7-.8,3.8-.9,6.2-.8,16.9-15,28.6-31.6,22s-14-20.2-10-32ZM906.5,1504.2c-1.5-4.1-.2-.8-.2-4.2,0-1.3-2.6-8.6-3.7-9.8s-1.4-2-2.4-.5c-11.5,41.4,46.2,40.3,37.2,0-6.5,2.1-3.9,8.9-4.9,13.9s-2,4.9-2.8,6.3c2.2-1.9-2.6-1.7-1.9-2.9l1.7-.2-.5-1.6,1.7-2.1c-7.6-3.5-15.7-4.3-23.6-1.1-.8.3-.8,1.3-.6,2Z"/>
    <polygon class="st0" points="927.7 1433.7 903.6 1433.7 903.6 1430.8 926.3 1430.8 927.7 1432.3 927.7 1433.7"/>
    <path class="st0" d="M919.1,1414.4c2.5,1.3,3.9,12.7,1.4,13.5-6.3,2-.9-11.2-1.4-13.5Z"/>
    <path class="st0" d="M913.1,1425.2l3,4.7h-11.6c1-1.9,6.8-5.7,8.5-4.7Z"/>
    <path class="st0" d="M932.6,1424.1c-2.9,4.5-5.9,6.8-11.6,5.8.4-1.6,2.8-1.7,4.4-2.9,2.2-1.7,1-4.3,7.2-2.9Z"/>
    <path class="st0" d="M898.8,1488.8c-4,11.8-3.2,26.7,10,32s30.8-5.1,31.6-22-2.8-7,.9-6.2c8.6,23.4-15.8,49.3-38.1,31.8-11.3-8.8-12.7-21.1-6.7-33.8s-.2-2.4,2.4-1.9Z"/>
    <path class="st0" d="M906.5,1504.2c-.2-.7-.2-1.7.6-2,7.8-3.2,16-2.4,23.6,1.1l-1.7,2.1.5,1.6-1.7.2c-.7,1.2,4.1,1,1.9,2.9s-6-2.6-8.2-2.9c-4.5-.6-10-.1-14,2l1.9-2.9c-1.1,0-2.6-1-2.9-1.9Z"/>
    <path class="st0" d="M906.5,1504.2c.5,1.3-1.8,5.3-.9,6.6,6.3,3.3,13.2,4.7,20.2,2.6s2.5-1,3.8-3.4c.8-1.4,2.6-4.9,2.8-6.3.9-5-1.6-11.8,4.9-13.9,9,40.3-48.7,41.3-37.2,0,1.1-1.5,1.6-.5,2.4.5s3.7,8.6,3.7,9.8c0,3.3-1.3,0,.2,4.2Z"/>
  </g>
  <g>
    <path d="M1020.3,1128.2h-100.9v-54.2c0-15.8-1.1-25.6-3.2-29.5-2.2-3.9-6.9-5.9-14.3-5.9s-13.6,2.4-15.8,7.1c-2.2,4.8-3.4,15-3.4,30.8v144.9c0,15.2,1.1,25,3.4,29.7,2.2,4.6,7.3,6.9,15.1,6.9s12.4-2.3,14.7-7c2.3-4.6,3.5-15.5,3.5-32.6v-39.2h100.9v12.2c0,32.3-2.8,55.2-8.5,68.7-5.7,13.5-18.2,25.3-37.6,35.5-19.4,10.2-43.4,15.2-71.8,15.2s-53.9-4.3-73.1-12.9c-19.2-8.6-31.9-20.5-38.1-35.7-6.2-15.2-9.3-38.1-9.3-68.7v-91.1c0-22.5,1-39.3,2.9-50.6,1.9-11.2,7.6-22.1,17.1-32.5,9.5-10.4,22.7-18.6,39.6-24.6,16.9-6,36.2-9,58.1-9s54.3,4.6,73.6,13.9c19.3,9.2,32,20.7,38.1,34.5,6.1,13.8,9.1,35.2,9.1,64.3v29.6Z"/>
    <path d="M1231,992.4l57.7,311.9h-103.1l-5.4-56.1h-36.1l-6.1,56.1h-104.3l51.5-311.9h145.9ZM1177.5,1192.9c-5.1-35.3-10.2-79-15.4-131-10.3,59.7-16.7,103.4-19.4,131h34.7Z"/>
    <path d="M1482,992.4v62.4h-59.9v249.5h-100.9v-249.5h-59.7v-62.4h220.6Z"/>
    <path d="M1737.1,992.4v311.9h-100.9v-131h-30.2v131h-100.9v-311.9h100.9v111.5h30.2v-111.5h100.9Z"/>
    <path d="M1777.6,992.4h168.3v62.4h-67.4v59.1h63v59.3h-63v68.6h74.1v62.4h-175v-311.9Z"/>
    <path d="M1981.6,992.4h75.5c48.7,0,81.7,1.8,98.9,5.4,17.2,3.6,30.2,9.5,39.2,17.7,8.9,8.2,14.5,17.4,16.8,27.5,2.2,10.1,3.4,29.9,3.4,59.4v109.2c0,28-1.6,46.7-4.9,56.2-3.3,9.4-9,16.8-17.1,22.2-8.2,5.3-18.2,9.1-30.2,11.2-12,2.1-30,3.2-54.2,3.2h-127.3v-311.9ZM2082.6,1045.7v205.2c14.5,0,23.5-2.3,26.8-7,3.4-4.7,5-17.4,5-38.2v-121.2c0-14.1-.6-23.2-1.7-27.2-1.1-4-3.7-6.9-7.7-8.8-4-1.9-11.5-2.8-22.5-2.8Z"/>
    <path d="M2253,992.4h71.4c47.6,0,79.9,1.5,96.7,4.4,16.9,3,30.6,10.5,41.2,22.6,10.6,12.1,15.9,31.5,15.9,58.1s-3.8,40.6-11.3,48.9c-7.5,8.4-22.3,13.4-44.4,15,20,4,33.4,9.3,40.3,16,6.9,6.7,11.1,12.8,12.8,18.4,1.7,5.6,2.5,21,2.5,46.1v82.3h-93.7v-103.6c0-16.7-1.6-27-4.9-31-3.3-4-11.9-6-25.8-6v140.6h-100.9v-311.9ZM2354,1045.7v69.4c11.3,0,19.3-1.3,23.9-3.8,4.6-2.5,6.8-10.6,6.8-24.4v-17.1c0-9.9-2.2-16.4-6.6-19.5-4.4-3.1-12.4-4.6-24.1-4.6Z"/>
    <path d="M2691.9,992.4l57.7,311.9h-103.1l-5.4-56.1h-36.1l-6.1,56.1h-104.3l51.5-311.9h145.9ZM2638.4,1192.9c-5.1-35.3-10.2-79-15.4-131-10.3,59.7-16.7,103.4-19.4,131h34.7Z"/>
    <path d="M2867.7,992.4v249.5h61.4v62.4h-162.3v-311.9h100.9Z"/>
  </g>
  <g>
    <path d="M1301.7,1416.2c71.2,3.2,171.3,7.5,171.1,63.5,0,63.8-83.6,79-173.2,79-89.5-.2-163.7-9.6-173.2-79h104.3c11.4,17.3,37.8,21.8,68.9,21.8s68.9-4.5,68.9-21.8-31-11.3-71-13c-71.2-3.2-171.3-7.5-171.1-63.3,0-63.8,83.6-79.1,173.2-79.1,89.5.5,163.7,9.3,173.2,79.1h-104.3c-11.4-17.6-37.8-21.8-68.9-21.8s-68.9,4-68.9,21.8,31,11.1,71,12.8Z"/>
    <path d="M1599,1476.9v76.3h-99.5v-223.5h99.5v76.3h149.5v-76.3h99.7v223.5h-99.7v-76.3h-149.5Z"/>
    <path d="M2232,1433.3v16.3c.4,84.5-78.3,108.9-174.2,109.1-96.1-.2-174.7-24.6-174.4-109.1v-16.3c-.4-84.6,78.3-108.9,174.4-109.1,96.1,0,174.2,24.6,174.2,109.1ZM2132.4,1438.6c.6-36.4-34-43.1-74.6-43.6-40.8.5-75.4,7.2-74.8,43.6v5.5c-.6,36.6,34,43.2,74.8,43.7,40.6-.5,75.2-7.2,74.6-43.7v-5.5Z"/>
    <path d="M2507.3,1330.1c52.6-.5,97.2,38.2,96.5,84.5.8,46.1-43.9,85.1-96.5,84.5h-146.4v54.5h-99.5v-223.5h246ZM2482.5,1433.5c5.9,0,11-1.8,15.2-5.5,4.4-3.8,6.5-8.3,6.5-13.5s-2.1-9.8-6.5-13.5c-4.2-3.8-9.3-5.7-15.2-5.7h-121.6v38.1h121.6Z"/>
  </g>
  <g>
    <path d="M2754.5,1368.6c8.5,7.5,13.6,13.7,14.6,25.7,1.1,13.5-6.7,27.7,4.9,38.2l126.7,113.7c10.5,10.2,11.3,31.9-8.2,29.8-9.8-1-16.3-9.5-22.5-16.1-35.2-37.7-67.8-78.1-103.3-115.5-3-3.2-5.6-6-9.9-7.6-8.9-3.3-13.5,0-22,.5-18.4,1.1-26.1-4.9-37-18.2-12.6-15.3-37.4-52.3-22.5-71.4,18.7-24,62.9,6.5,79.3,21.1Z"/>
    <path d="M2864.8,1392.7c.7.7,4.6-2.4,5.3-3,4.2-3.1,8.7-7.2,12.6-10.7,13.2-11.7,25.7-24.4,38.5-36.6.6-.1,2.3,1.5,1.8,2.2-12.3,12.5-24.8,25-36.4,38.2-3.6,4.1-7.5,8.3-10.7,12.6-.6.8-3.7,4.6-3,5.3,1.9,0,3.4-1.5,4.9-2.5,4.2-3,8.7-7.3,12.6-10.7,13.3-11.8,26-24.4,38.6-36.9.9-.5,1.7.8,2.2,1.4l-.2.6c-11.9,12.3-24.1,24.5-35.5,37.3s-9.6,10.3-13,15.3-1.7,2.2-1.6,3.6c1.7.2,3.1-1.1,4.5-2.1,16.2-11.3,34.1-31,48.9-44.8.5-.5,2.7-3.3,2.9-3.4.7-.3,2.3,1.3,2.2,1.9-11.5,12.3-23.6,24.1-34.8,36.7-4.2,4.7-9.9,10.7-13.4,15.8s-2.5,3.6-2.1,4c1.7.2,2.9-1,4.2-1.9,3.7-2.5,8.1-6.6,11.5-9.6,14-12.2,27.1-25.6,40.7-38.4.3-.7,1.1,0,1.1.2.1.7-6.3,10.2-7.3,11.6-8.8,12.6-20.3,25.8-30.7,37.2-9.1,9.8-15.8,17.8-29.4,21.3-11.2,2.9-21.9-1.5-31.2,6.1l-18.9,21.1-12.3-11c5.6-5.7,12.1-10.4,17.7-15.9,4.5-4.4,8-8.5,8.7-15.1s-.6-7-.4-10.7c1-16.6,9.3-25.8,20.7-36.4,8.4-7.8,17.8-15.9,26.8-23.1s15.6-12.2,24.3-17.1l.7,1.1c-12.6,12.7-25.2,25.5-37.1,38.9-3.5,3.9-7.7,8.4-10.7,12.6-1.1,1.5-2.5,3-2.5,4.9Z"/>
    <path d="M2783.8,1483.1l14.3,15.2v.9s-65.6,72.8-65.6,72.8c-15.3,15.9-40,5.1-26.6-17.2,5-8.3,24.2-23.8,32.3-31.1,15.1-13.7,30.5-27,45.7-40.6Z"/>
  </g>
</svg>